PathFileType	4	(X/Y/Z)	RBDS020\RBDS020runT25.trc
DataRate	CameraRate	NumFrames	NumMarkers	Units	OrigDataRate	OrigDataStartFrame	OrigNumFrames
150.000000	150.000000	5	33	mm	150.000000	3937	4500
Frame#	Time	L.ASIS			L.Heel.Bottom			L.Heel.Lateral			L.Heel.Top			L.Iliac.Crest			L.MT1			L.MT5			L.PSIS			L.Shank.Bottom.Lateral			L.Shank.Bottom.Medial			L.Shank.Top.Lateral			L.Shank.Top.Medial			L.Thigh.Bottom.Lateral			L.Thigh.Bottom.Medial			L.Thigh.Top.Lateral			L.Thigh.Top.Medial			R.ASIS			R.ASY			R.Heel.Bottom			R.Heel.Lateral			R.Heel.Top			R.Iliac.Crest			R.MT1			R.MT5			R.PSIS			R.Shank.Bottom.Lateral			R.Shank.Bottom.Medial			R.Shank.Top.Lateral			R.Shank.Top.Medial			R.Thigh.Bottom.Lateral			R.Thigh.Bottom.Medial			R.Thigh.Top.Lateral			R.Thigh.Top.Medial			
		X1	Y1	Z1	X2	Y2	Z2	X3	Y3	Z3	X4	Y4	Z4	X5	Y5	Z5	X6	Y6	Z6	X7	Y7	Z7	X8	Y8	Z8	X9	Y9	Z9	X10	Y10	Z10	X11	Y11	Z11	X12	Y12	Z12	X13	Y13	Z13	X14	Y14	Z14	X15	Y15	Z15	X16	Y16	Z16	X17	Y17	Z17	X18	Y18	Z18	X19	Y19	Z19	X20	Y20	Z20	X21	Y21	Z21	X22	Y22	Z22	X23	Y23	Z23	X24	Y24	Z24	X25	Y25	Z25	X26	Y26	Z26	X27	Y27	Z27	X28	Y28	Z28	X29	Y29	Z29	X30	Y30	Z30	X31	Y31	Z31	X32	Y32	Z32	X33	Y33	Z33	

3938	26.24666666666667	2223.637246442281	1046.314273583453	901.9969913110776	2288.999951508082	25.18541154240168	973.1515889388062	2305.040710863	47.98701142019382	926.6520828575838	2285.505904105118	72.90360998860518	968.3773637119313	2161.041388139867	1092.092531602589	863.0176619289238	2496.656516388603	101.4111439282051	986.7193794819357	2460.644591544107	69.85218481809308	886.231789769692	2065.575133134521	1078.870206462948	963.4223715175806	2323.278796980053	183.3290153565122	896.135146761493	2284.139614138172	180.6934409243239	935.7092654002425	2300.614504328769	259.06477701961	879.8610791656389	2263.265335649386	257.5505011541337	919.142996679425	2230.445343903669	696.9946607369416	836.9304065600473	2171.862090868207	676.729740633709	874.7665895441592	2188.269750638061	797.8766580631371	826.2067386889603	2133.308037149368	778.9717178044408	864.123765878375	2224.36458142747	1022.953381080987	1128.845389966921	1776.175212281357	158.7492742143582	1092.255920888366	1630.623633618504	286.9494374183884	1068.708602359466	1654.253054692333	273.0424699494156	1115.254693640717	1670.054654521462	303.2767955638614	1073.100876304859	2182.285823269366	1083.316202261345	1154.691581217481	1759.708216834792	118.4354337371457	1043.871620188385	1728.657412449548	128.9732880646384	1147.933815620299	2069.452871314134	1077.900053519943	1062.830722636096	1795.967503355238	319.4143099506168	1138.334866759392	1774.195699286985	354.1151707690788	1107.296888911158	1859.606139895162	374.2578296417308	1152.10236409322	1832.272850719467	408.7073104107672	1121.912246819677	2076.354452865039	652.7819598111211	1165.078677562357	2023.264003549961	661.1897968120131	1118.036157846314	2080.764726460965	762.8369334848005	1176.599959543244	2030.404936417265	770.1009689149948	1131.022208476202	
3939	26.25333333333333	2222.847199391314	1043.533416156633	900.6185445232185	2278.982859345254	24.38018393674825	973.9584961534563	2295.898470981586	46.88488222201758	927.6735875878554	2277.04789660075	72.07524323204106	969.516008628839	2159.823482951434	1088.561179092108	862.5663407592425	2488.325848319173	94.40344480858782	988.5579134019453	2451.857786932106	64.58772522545729	887.6885438599866	2064.814580787457	1074.364057275743	963.9369920061738	2317.489174602352	179.5893869544853	897.0760422601805	2277.981327687808	177.6523066699737	936.2927312985738	2296.202071832814	255.6265211946651	880.4854205094114	2258.485338164223	254.787579095632	919.4137081077762	2230.345669182272	693.9698781482907	837.730097233014	2171.299378724881	673.6138222222911	874.7933564507229	2188.060815725656	794.76361464816	826.4933841798983	2132.898645338331	775.8733880388636	864.0932754673024	2224.875575777795	1019.578263562755	1127.938595035224	1774.573453376801	163.5958396684458	1094.18400879556	1632.969342014544	295.2586594400081	1066.539929086121	1655.600030812576	281.5228499290528	1113.645219173981	1672.771604185412	310.5276866315905	1071.168691661454	2182.524351661435	1079.473666729483	1154.632552013938	1757.531032435906	123.0041522425329	1046.200533912294	1725.51932044722	136.1693983516468	1149.632351816726	2069.415508627996	1073.033128465961	1063.293550863971	1798.300058386989	323.9016744643167	1137.867881372088	1778.175306510758	358.7154955757121	1105.911415783518	1863.504431964163	376.8105990958671	1151.609180527647	1837.826776166854	411.6096186694681	1120.42276869503	2082.720188466552	646.8356407501475	1165.461066027511	2029.71530882652	653.8815901149266	1118.031376125201	2084.739761485115	756.929495731586	1176.647854109444	2034.384613998453	762.9416870557726	1130.885322268922	
3940	26.26	2221.924155408583	1040.339968222054	899.3273140659792	2266.959366661523	23.88637658225051	974.6150682053515	2284.84836187873	46.11354176294795	928.6057420993529	2266.806581894544	71.5562601246298	970.6305532674617	2158.633752432017	1084.642009106487	862.1337902366198	2478.289620184593	86.69453305855195	990.3738511224683	2441.240771705026	59.14874922526256	889.0066825529155	2063.920975479458	1069.556830962516	964.3771224901745	2310.655559132976	175.8185597879722	898.0742854670784	2270.685701315547	174.7958465276918	936.8052158051655	2291.15821201425	252.2116706091748	881.0942142255359	2252.99674032039	252.2533016577321	919.5571469426762	2230.472243125518	690.770605928886	838.4306695249359	2170.963709753909	670.20771468114	874.6504950459051	2187.943909657264	791.4129460095027	826.7138435993166	2132.582374115222	772.4437002526545	863.9450403690779	2225.250928905241	1015.873705868711	1127.070120045398	1774.132301345558	168.1633054082784	1096.151764196019	1636.616219753095	303.1468703549183	1064.276730090985	1658.282772822037	289.7078649684441	1111.938509336162	1676.783987773377	317.338730984227	1069.096376820009	2182.7442827973	1075.248047720837	1154.581120794757	1756.495877657541	127.2736775197324	1048.641730054109	1723.674401651115	143.2846621441631	1151.407343377115	2069.189852017264	1067.84242630238	1063.655326234881	1801.739102623831	328.0822335623799	1137.351045200585	1783.260853137589	362.8862767254424	1104.448273110571	1868.410738613432	379.0516863210514	1151.054584830672	1844.390278674744	414.0663861435431	1118.843103016712	2089.186905141687	640.7118339561979	1165.828943741533	2036.380898026254	646.3209066623888	1117.924276179835	2088.699269860834	750.812259995081	1176.59785876462	2038.490778994884	755.4963580766849	1130.524261395238	
3941	26.26666666666667	2220.848821876823	1036.770279219545	898.1546608738337	2253.305944276203	23.686502460006	975.1292284341586	2272.19711562436	45.67637505698373	929.4383720221801	2255.02871440388	71.32495060277471	971.6994223909284	2157.463626428568	1080.360983591916	861.7235865755491	2466.758988763008	78.81209552898652	992.1027400299344	2429.059850872362	53.90746658123298	890.150793252246	2062.853435222729	1064.508082909405	964.7390024150022	2302.90977938166	172.208127709115	899.1272701012589	2262.410782748005	172.311568649614	937.2533180439514	2285.590160399172	248.9816951411119	881.6932666042585	2246.939027850816	250.1039819881489	919.5950483955376	2230.813497746154	687.4756438701446	838.9524942771563	2170.885128208786	666.5805351681179	874.3117556404983	2187.890390948327	787.8977471191754	826.8271899170578	2132.35190610723	768.7416111344708	863.660882799054	2225.437947950245	1011.89909475668	1126.273498599824	1774.881418799303	172.4172329015016	1098.126289800215	1641.530183148118	310.5663976248125	1062.03108199464	1662.302637794475	297.5264675572744	1110.225942220483	1682.060874650796	323.6684684205898	1066.982984251799	2182.883855661856	1070.686905409654	1154.550651914788	1756.612214599315	131.2303680652377	1051.15558463543	1723.19340811676	150.2237329369339	1153.238046261358	2068.71783997875	1062.394262571188	1063.905887331264	1806.307182296872	331.9006236500906	1136.821160253097	1789.434645841932	366.6046140538635	1102.990900793176	1874.350525336755	380.9395892012175	1150.474233019226	1851.950266979913	416.0635713761846	1117.258989150654	2095.764699700345	634.5047251112287	1166.166520167082	2043.237608194307	638.6242887461194	1117.750073248293	2092.675360142014	744.5696219038227	1176.455210519516	2042.716043362693	747.8731251883073	1129.994841955464	
3942	26.27333333333333	2219.604697976327	1032.886994145288	897.1185827771441	2238.406499880015	23.74407897944037	975.5155288410601	2258.260570587743	45.55311404673007	930.1630959605752	2241.970160840547	71.34280051825095	972.6996076700671	2156.279932422141	1075.759941143647	861.3387313360412	2453.954802935294	71.27284128424316	993.6791877716659	2415.588941927395	49.19140888770234	891.0970606519023	2061.570273324354	1059.274707291479	965.0317822379561	2294.36808972645	168.9355063599673	900.2209059685321	2253.306667620182	170.3654262328422	937.641946809894	2279.578723239982	246.0832928339439	882.2850813530927	2240.431894630321	248.4745393358641	919.5538676283481	2231.34573792675	684.1675786622867	839.244285026925	2171.072849440724	662.8136891943398	873.7729778206426	2187.870687307566	784.2994669323397	826.8107255554163	2132.193123239518	764.8411104939034	863.2368722559422	2225.383463647793	1007.722563028104	1125.580562810655	1776.853674054074	176.333580736125	1100.070372296411	1647.643648686497	317.461201718374	1059.920698911653	1667.630401776151	304.8958108944764	1108.604247640489	1688.531834044858	329.4767388249731	1064.933289512152	2182.865072710742	1065.837225471729	1154.558706507431	1757.899913539079	134.8675019739155	1053.695053637191	1724.146872872374	156.8851308497598	1155.103289076063	2067.946417551162	1056.748251504905	1064.047196273219	1812.004322871835	335.3138019687646	1136.312977531604	1796.657103663365	369.8640662314958	1101.617806725865	1881.325536505449	382.449741575076	1149.90276371267	1860.470550516384	417.6089294865874	1115.751048895805	2102.476632999997	628.3099637088552	1166.461010990776	2050.272341249507	630.903281524826	1117.547328591738	2096.707418330846	738.2867593858643	1176.229599983611	2047.05562424395	740.1749461464595	1129.360713049778	
